<svg width="160" height="80" viewBox="0 0 454 97" fill="none" xmlns="http://www.w3.org/2000/svg">
<path d="M112.663 72V24.7273H121.226V46.4478H121.803L140.246 24.7273H150.702L132.421 45.94L150.864 72H140.569L126.466 51.7337L121.226 57.9197V72H112.663ZM156.554 72V36.5455H164.91V72H156.554ZM160.755 31.5135C159.432 31.5135 158.293 31.0749 157.339 30.1978C156.385 29.3053 155.908 28.2358 155.908 26.9893C155.908 25.7275 156.385 24.658 157.339 23.7809C158.293 22.8884 159.432 22.4421 160.755 22.4421C162.094 22.4421 163.233 22.8884 164.171 23.7809C165.126 24.658 165.603 25.7275 165.603 26.9893C165.603 28.2358 165.126 29.3053 164.171 30.1978C163.233 31.0749 162.094 31.5135 160.755 31.5135ZM184.709 72.6232C181.924 72.6232 179.431 71.9077 177.231 70.4766C175.03 69.0455 173.291 66.968 172.014 64.2443C170.737 61.5206 170.098 58.2121 170.098 54.3189C170.098 50.3795 170.745 47.0556 172.037 44.3473C173.345 41.6236 175.107 39.5692 177.323 38.1843C179.539 36.784 182.009 36.0838 184.733 36.0838C186.81 36.0838 188.518 36.4377 189.857 37.1456C191.196 37.8381 192.257 38.6767 193.042 39.6616C193.827 40.631 194.435 41.5466 194.866 42.4084H195.212V24.7273H203.591V72H195.374V66.4141H194.866C194.435 67.2758 193.812 68.1914 192.996 69.1609C192.18 70.1149 191.103 70.9305 189.765 71.6076C188.426 72.2847 186.741 72.6232 184.709 72.6232ZM187.041 65.7678C188.81 65.7678 190.318 65.2907 191.565 64.3366C192.811 63.3672 193.758 62.0207 194.404 60.2972C195.05 58.5737 195.374 56.5656 195.374 54.2727C195.374 51.9799 195.05 49.9871 194.404 48.2944C193.773 46.6017 192.834 45.286 191.588 44.3473C190.357 43.4086 188.841 42.9393 187.041 42.9393C185.179 42.9393 183.625 43.424 182.378 44.3935C181.132 45.3629 180.193 46.7017 179.562 48.4098C178.931 50.1179 178.616 52.0722 178.616 54.2727C178.616 56.4886 178.931 58.466 179.562 60.2049C180.208 61.9284 181.155 63.2902 182.401 64.2905C183.663 65.2753 185.21 65.7678 187.041 65.7678ZM223.702 72.6232C220.917 72.6232 218.424 71.9077 216.223 70.4766C214.023 69.0455 212.284 66.968 211.007 64.2443C209.729 61.5206 209.091 58.2121 209.091 54.3189C209.091 50.3795 209.737 47.0556 211.03 44.3473C212.338 41.6236 214.1 39.5692 216.315 38.1843C218.531 36.784 221.001 36.0838 223.725 36.0838C225.802 36.0838 227.51 36.4377 228.849 37.1456C230.188 37.8381 231.25 38.6767 232.035 39.6616C232.819 40.631 233.427 41.5466 233.858 42.4084H234.204V24.7273H242.583V72H234.366V66.4141H233.858C233.427 67.2758 232.804 68.1914 231.988 69.1609C231.173 70.1149 230.096 70.9305 228.757 71.6076C227.418 72.2847 225.733 72.6232 223.702 72.6232ZM226.033 65.7678C227.803 65.7678 229.311 65.2907 230.557 64.3366C231.804 63.3672 232.75 62.0207 233.396 60.2972C234.043 58.5737 234.366 56.5656 234.366 54.2727C234.366 51.9799 234.043 49.9871 233.396 48.2944C232.766 46.6017 231.827 45.286 230.58 44.3473C229.349 43.4086 227.834 42.9393 226.033 42.9393C224.171 42.9393 222.617 43.424 221.371 44.3935C220.124 45.3629 219.185 46.7017 218.554 48.4098C217.924 50.1179 217.608 52.0722 217.608 54.2727C217.608 56.4886 217.924 58.466 218.554 60.2049C219.201 61.9284 220.147 63.2902 221.394 64.2905C222.655 65.2753 224.202 65.7678 226.033 65.7678ZM265.002 72.6925C261.54 72.6925 258.539 71.9308 256 70.4073C253.461 68.8839 251.492 66.7526 250.091 64.0135C248.706 61.2744 248.014 58.0736 248.014 54.4112C248.014 50.7488 248.706 47.5404 250.091 44.7859C251.492 42.0314 253.461 39.8924 256 38.369C258.539 36.8455 261.54 36.0838 265.002 36.0838C268.465 36.0838 271.466 36.8455 274.005 38.369C276.544 39.8924 278.506 42.0314 279.891 44.7859C281.291 47.5404 281.991 50.7488 281.991 54.4112C281.991 58.0736 281.291 61.2744 279.891 64.0135C278.506 66.7526 276.544 68.8839 274.005 70.4073C271.466 71.9308 268.465 72.6925 265.002 72.6925ZM265.049 65.9986C266.926 65.9986 268.496 65.4831 269.757 64.4521C271.019 63.4057 271.958 62.0053 272.573 60.2511C273.204 58.4968 273.52 56.5425 273.52 54.3881C273.52 52.2184 273.204 50.2564 272.573 48.5021C271.958 46.7325 271.019 45.3245 269.757 44.2781C268.496 43.2317 266.926 42.7085 265.049 42.7085C263.125 42.7085 261.525 43.2317 260.247 44.2781C258.986 45.3245 258.039 46.7325 257.408 48.5021C256.793 50.2564 256.485 52.2184 256.485 54.3881C256.485 56.5425 256.793 58.4968 257.408 60.2511C258.039 62.0053 258.986 63.4057 260.247 64.4521C261.525 65.4831 263.125 65.9986 265.049 65.9986ZM287.502 72V24.7273H296.066V44.7397H317.971V24.7273H326.558V72H317.971V51.9183H296.066V72H287.502ZM349.018 72.6925C345.555 72.6925 342.554 71.9308 340.015 70.4073C337.476 68.8839 335.507 66.7526 334.106 64.0135C332.721 61.2744 332.029 58.0736 332.029 54.4112C332.029 50.7488 332.721 47.5404 334.106 44.7859C335.507 42.0314 337.476 39.8924 340.015 38.369C342.554 36.8455 345.555 36.0838 349.018 36.0838C352.48 36.0838 355.481 36.8455 358.02 38.369C360.559 39.8924 362.521 42.0314 363.906 44.7859C365.306 47.5404 366.006 50.7488 366.006 54.4112C366.006 58.0736 365.306 61.2744 363.906 64.0135C362.521 66.7526 360.559 68.8839 358.02 70.4073C355.481 71.9308 352.48 72.6925 349.018 72.6925ZM349.064 65.9986C350.941 65.9986 352.511 65.4831 353.772 64.4521C355.034 63.4057 355.973 62.0053 356.589 60.2511C357.219 58.4968 357.535 56.5425 357.535 54.3881C357.535 52.2184 357.219 50.2564 356.589 48.5021C355.973 46.7325 355.034 45.3245 353.772 44.2781C352.511 43.2317 350.941 42.7085 349.064 42.7085C347.14 42.7085 345.54 43.2317 344.263 44.2781C343.001 45.3245 342.054 46.7325 341.423 48.5021C340.808 50.2564 340.5 52.2184 340.5 54.3881C340.5 56.5425 340.808 58.4968 341.423 60.2511C342.054 62.0053 343.001 63.4057 344.263 64.4521C345.54 65.4831 347.14 65.9986 349.064 65.9986ZM386.613 72.6925C383.151 72.6925 380.15 71.9308 377.611 70.4073C375.072 68.8839 373.103 66.7526 371.702 64.0135C370.317 61.2744 369.625 58.0736 369.625 54.4112C369.625 50.7488 370.317 47.5404 371.702 44.7859C373.103 42.0314 375.072 39.8924 377.611 38.369C380.15 36.8455 383.151 36.0838 386.613 36.0838C390.076 36.0838 393.076 36.8455 395.616 38.369C398.155 39.8924 400.117 42.0314 401.502 44.7859C402.902 47.5404 403.602 50.7488 403.602 54.4112C403.602 58.0736 402.902 61.2744 401.502 64.0135C400.117 66.7526 398.155 68.8839 395.616 70.4073C393.076 71.9308 390.076 72.6925 386.613 72.6925ZM386.66 65.9986C388.537 65.9986 390.107 65.4831 391.368 64.4521C392.63 63.4057 393.569 62.0053 394.184 60.2511C394.815 58.4968 395.131 56.5425 395.131 54.3881C395.131 52.2184 394.815 50.2564 394.184 48.5021C393.569 46.7325 392.63 45.3245 391.368 44.2781C390.107 43.2317 388.537 42.7085 386.66 42.7085C384.736 42.7085 383.136 43.2317 381.858 44.2781C380.597 45.3245 379.65 46.7325 379.019 48.5021C378.404 50.2564 378.096 52.2184 378.096 54.3881C378.096 56.5425 378.404 58.4968 379.019 60.2511C379.65 62.0053 380.597 63.4057 381.858 64.4521C383.136 65.4831 384.736 65.9986 386.66 65.9986ZM421.901 72.6232C419.116 72.6232 416.623 71.9077 414.422 70.4766C412.222 69.0455 410.483 66.968 409.206 64.2443C407.929 61.5206 407.29 58.2121 407.29 54.3189C407.29 50.3795 407.936 47.0556 409.229 44.3473C410.537 41.6236 412.299 39.5692 414.515 38.1843C416.731 36.784 419.2 36.0838 421.924 36.0838C424.002 36.0838 425.71 36.4377 427.048 37.1456C428.387 37.8381 429.449 38.6767 430.234 39.6616C431.019 40.631 431.626 41.5466 432.057 42.4084H432.404V24.7273H440.782V72H432.565V66.4141H432.057C431.626 67.2758 431.003 68.1914 430.188 69.1609C429.372 70.1149 428.295 70.9305 426.956 71.6076C425.617 72.2847 423.932 72.6232 421.901 72.6232ZM424.232 65.7678C426.002 65.7678 427.51 65.2907 428.757 64.3366C430.003 63.3672 430.949 62.0207 431.596 60.2972C432.242 58.5737 432.565 56.5656 432.565 54.2727C432.565 51.9799 432.242 49.9871 431.596 48.2944C430.965 46.6017 430.026 45.286 428.78 44.3473C427.549 43.4086 426.033 42.9393 424.232 42.9393C422.37 42.9393 420.816 43.424 419.57 44.3935C418.323 45.3629 417.385 46.7017 416.754 48.4098C416.123 50.1179 415.807 52.0722 415.807 54.2727C415.807 56.4886 416.123 58.466 416.754 60.2049C417.4 61.9284 418.346 63.2902 419.593 64.2905C420.855 65.2753 422.401 65.7678 424.232 65.7678Z" fill="#FAFAFA"/>
<circle cx="14.5" cy="21.5" r="11" fill="#FAFAFA" stroke="#FAFAFA"/>
<circle cx="77.5" cy="21.5" r="11" fill="#FAFAFA" stroke="#FAFAFA"/>
<mask id="path-4-inside-1_1_12" fill="white">
<path d="M89 48.5C89 54.8691 87.849 61.1759 85.6126 67.0601C83.3763 72.9444 80.0985 78.291 75.9663 82.7947C71.834 87.2983 66.9284 90.8708 61.5294 93.3082C56.1304 95.7455 50.3438 97 44.5 97C38.6562 97 32.8696 95.7455 27.4706 93.3082C22.0716 90.8708 17.166 87.2983 13.0337 82.7947C8.90154 78.291 5.62369 72.9444 3.38736 67.0601C1.15103 61.1759 -5.10883e-07 54.8691 0 48.5L44.5 48.5H89Z"/>
</mask>
<path d="M89 48.5C89 54.8691 87.849 61.1759 85.6126 67.0601C83.3763 72.9444 80.0985 78.291 75.9663 82.7947C71.834 87.2983 66.9284 90.8708 61.5294 93.3082C56.1304 95.7455 50.3438 97 44.5 97C38.6562 97 32.8696 95.7455 27.4706 93.3082C22.0716 90.8708 17.166 87.2983 13.0337 82.7947C8.90154 78.291 5.62369 72.9444 3.38736 67.0601C1.15103 61.1759 -5.10883e-07 54.8691 0 48.5L44.5 48.5H89Z" stroke="#FAFAFA" stroke-width="16" mask="url(#path-4-inside-1_1_12)"/>
</svg>
